<?xml version="1.0" encoding="UTF-8" standalone="no"?>
<!-- Created with Inkscape (http://www.inkscape.org/) -->

<svg
   xmlns:dc="http://purl.org/dc/elements/1.1/"
   xmlns:cc="http://creativecommons.org/ns#"
   xmlns:rdf="http://www.w3.org/1999/02/22-rdf-syntax-ns#"
   xmlns:svg="http://www.w3.org/2000/svg"
   xmlns="http://www.w3.org/2000/svg"
   xmlns:sodipodi="http://sodipodi.sourceforge.net/DTD/sodipodi-0.dtd"
   xmlns:inkscape="http://www.inkscape.org/namespaces/inkscape"
   width="210mm"
   height="297mm"
   viewBox="0 0 210 297"
   version="1.1"
   id="svg8"
   inkscape:version="0.92.4 5da689c313, 2019-01-14"
   sodipodi:docname="fig_22.svg"
   inkscape:export-filename="/home/jakub/Documents/analiza_2/img/fig_22.png"
   inkscape:export-xdpi="96.279999"
   inkscape:export-ydpi="96.279999">
  <defs
     id="defs2">
    <inkscape:path-effect
       effect="simplify"
       id="path-effect4350"
       is_visible="true"
       steps="1"
       threshold="0.0466204"
       smooth_angles="360"
       helper_size="0"
       simplify_individual_paths="false"
       simplify_just_coalesce="false"
       simplifyindividualpaths="false"
       simplifyJustCoalesce="false" />
    <inkscape:path-effect
       effect="simplify"
       id="path-effect4346"
       is_visible="true"
       steps="1"
       threshold="0.0466204"
       smooth_angles="360"
       helper_size="0"
       simplify_individual_paths="false"
       simplify_just_coalesce="false"
       simplifyindividualpaths="false"
       simplifyJustCoalesce="false" />
    <inkscape:path-effect
       effect="simplify"
       id="path-effect4342"
       is_visible="true"
       steps="1"
       threshold="0.0466204"
       smooth_angles="360"
       helper_size="0"
       simplify_individual_paths="false"
       simplify_just_coalesce="false"
       simplifyindividualpaths="false"
       simplifyJustCoalesce="false" />
    <inkscape:path-effect
       effect="simplify"
       id="path-effect4334"
       is_visible="true"
       steps="1"
       threshold="0.0466204"
       smooth_angles="360"
       helper_size="0"
       simplify_individual_paths="false"
       simplify_just_coalesce="false"
       simplifyindividualpaths="false"
       simplifyJustCoalesce="false" />
    <marker
       inkscape:isstock="true"
       style="overflow:visible"
       id="marker4187"
       refX="0"
       refY="0"
       orient="auto"
       inkscape:stockid="Arrow1Lend">
      <path
         transform="matrix(-0.8,0,0,-0.8,-10,0)"
         style="fill:#000000;fill-opacity:1;fill-rule:evenodd;stroke:#000000;stroke-width:1.00000003pt;stroke-opacity:1"
         d="M 0,0 5,-5 -12.5,0 5,5 Z"
         id="path4185"
         inkscape:connector-curvature="0" />
    </marker>
    <marker
       inkscape:isstock="true"
       style="overflow:visible"
       id="marker4011"
       refX="0"
       refY="0"
       orient="auto"
       inkscape:stockid="Arrow1Lend">
      <path
         transform="matrix(-0.8,0,0,-0.8,-10,0)"
         style="fill:#ff00f8;fill-opacity:1;fill-rule:evenodd;stroke:#ff00f8;stroke-width:1.00000003pt;stroke-opacity:1"
         d="M 0,0 5,-5 -12.5,0 5,5 Z"
         id="path4009"
         inkscape:connector-curvature="0" />
    </marker>
    <marker
       inkscape:isstock="true"
       style="overflow:visible"
       id="marker3941"
       refX="0"
       refY="0"
       orient="auto"
       inkscape:stockid="Arrow1Lstart">
      <path
         transform="matrix(0.8,0,0,0.8,10,0)"
         style="fill:#000000;fill-opacity:1;fill-rule:evenodd;stroke:#000000;stroke-width:1.00000003pt;stroke-opacity:1"
         d="M 0,0 5,-5 -12.5,0 5,5 Z"
         id="path3939"
         inkscape:connector-curvature="0" />
    </marker>
    <inkscape:path-effect
       effect="bspline"
       id="path-effect3931"
       is_visible="true"
       weight="33.333333"
       steps="2"
       helper_size="0"
       apply_no_weight="true"
       apply_with_weight="true"
       only_selected="false" />
    <marker
       inkscape:stockid="Arrow1Lstart"
       orient="auto"
       refY="0"
       refX="0"
       id="Arrow1Lstart-6-2"
       style="overflow:visible"
       inkscape:isstock="true"
       inkscape:collect="always">
      <path
         inkscape:connector-curvature="0"
         id="path818-7-0"
         d="M 0,0 5,-5 -12.5,0 5,5 Z"
         style="fill:#000000;fill-opacity:1;fill-rule:evenodd;stroke:#000000;stroke-width:1.00000003pt;stroke-opacity:1"
         transform="matrix(0.8,0,0,0.8,10,0)" />
    </marker>
    <marker
       inkscape:stockid="Arrow1Lend"
       orient="auto"
       refY="0"
       refX="0"
       id="Arrow1Lend-5-2"
       style="overflow:visible"
       inkscape:isstock="true"
       inkscape:collect="always">
      <path
         inkscape:connector-curvature="0"
         id="path821-3-3"
         d="M 0,0 5,-5 -12.5,0 5,5 Z"
         style="fill:#000000;fill-opacity:1;fill-rule:evenodd;stroke:#000000;stroke-width:1.00000003pt;stroke-opacity:1"
         transform="matrix(-0.8,0,0,-0.8,-10,0)" />
    </marker>
  </defs>
  <sodipodi:namedview
     id="base"
     pagecolor="#ffffff"
     bordercolor="#666666"
     borderopacity="1.0"
     inkscape:pageopacity="0.0"
     inkscape:pageshadow="2"
     inkscape:zoom="0.35"
     inkscape:cx="1750"
     inkscape:cy="414.28571"
     inkscape:document-units="mm"
     inkscape:current-layer="layer1"
     showgrid="true"
     showguides="true"
     showborder="false"
     borderlayer="true"
     inkscape:showpageshadow="false"
     inkscape:pagecheckerboard="false"
     objecttolerance="10"
     inkscape:snap-path-clip="true"
     inkscape:snap-path-mask="true"
     gridtolerance="10">
    <inkscape:grid
       id="grid10"
       type="xygrid" />
  </sodipodi:namedview>
  <metadata
     id="metadata5">
    <rdf:RDF>
      <cc:Work
         rdf:about="">
        <dc:format>image/svg+xml</dc:format>
        <dc:type
           rdf:resource="http://purl.org/dc/dcmitype/StillImage" />
        <dc:title></dc:title>
      </cc:Work>
    </rdf:RDF>
  </metadata>
  <g
     inkscape:label="Layer 1"
     inkscape:groupmode="layer"
     id="layer1">
    <path
       style="opacity:1;vector-effect:none;fill:none;fill-opacity:1;stroke:#000000;stroke-width:0.86500001;stroke-linecap:butt;stroke-linejoin:miter;stroke-miterlimit:4;stroke-dasharray:none;stroke-dashoffset:0;stroke-opacity:1;marker-start:url(#Arrow1Lstart-6-2);marker-end:url(#Arrow1Lend-5-2)"
       d="M 84.666674,21.833317 V 254.66666 H 306.91666"
       id="path816-5-7"
       inkscape:connector-curvature="0" />
    <circle
       style="opacity:1;vector-effect:none;fill:none;fill-opacity:1;fill-rule:evenodd;stroke:#ff0068;stroke-width:1.365;stroke-linecap:butt;stroke-linejoin:miter;stroke-miterlimit:4;stroke-dasharray:none;stroke-dashoffset:0;stroke-opacity:1"
       id="path3906"
       cx="158.75"
       cy="180.58333"
       r="74.083336" />
    <g
       id="g3921"
       transform="matrix(2.3943086,0,0,2.3943086,51.112546,-113.37655)"
       style="fill:#ff00f9;fill-opacity:1;stroke:none;stroke-width:1;stroke-miterlimit:4;stroke-dasharray:none;stroke-opacity:1">
      <g
         word-spacing="normal"
         letter-spacing="normal"
         font-size-adjust="none"
         font-stretch="normal"
         font-weight="normal"
         font-variant="normal"
         font-style="normal"
         stroke-miterlimit="10.433"
         xml:space="preserve"
         transform="matrix(0.3,0,0,-0.3,-52.5,222.75)"
         id="content"
         style="font-style:normal;font-variant:normal;font-weight:normal;font-stretch:normal;letter-spacing:normal;word-spacing:normal;text-anchor:start;fill:#ff00f9;fill-opacity:1;fill-rule:evenodd;stroke:none;stroke-width:3.33333325;stroke-linecap:butt;stroke-linejoin:miter;stroke-miterlimit:4;stroke-dasharray:none;stroke-dashoffset:0;stroke-opacity:1"><path
           id="path3918"
           d="m 501.66,436.39 0.04,0.16 0.04,0.16 0.04,0.15 0.04,0.14 0.04,0.14 0.04,0.13 0.04,0.12 0.05,0.11 0.05,0.11 0.05,0.11 0.07,0.09 0.06,0.09 0.08,0.09 0.08,0.08 0.09,0.07 0.09,0.07 0.11,0.06 0.12,0.06 0.13,0.05 0.14,0.05 0.15,0.04 0.09,0.02 0.08,0.02 0.09,0.02 0.09,0.02 0.1,0.01 0.1,0.02 0.1,0.01 0.11,0.01 0.11,0.02 0.12,0.01 0.12,0.01 h 0.12 l 0.13,0.01 0.13,0.01 0.14,0.01 h 0.14 0.15 l 0.15,0.01 h 0.16 0.16 0.17 0.17 c 1.14,0 1.6,0 1.6,1 0,0.55 -0.5,0.55 -1.35,0.55 h -6.58 c -1.29,0 -1.34,0 -1.93,-0.95 l -18.19,-28.39 -3.89,28.18 c -0.16,1.16 -0.25,1.16 -1.55,1.16 h -6.83 c -0.93,0 -1.48,0 -1.48,-0.95 0,-0.6 0.44,-0.6 1.44,-0.6 0.65,0 1.54,-0.04 2.14,-0.09 0.79,-0.11 1.09,-0.25 1.09,-0.8 0,-0.2 -0.05,-0.36 -0.19,-0.95 l -6.33,-25.36 c -0.5,-2 -1.34,-3.59 -5.39,-3.73 -0.25,0 -0.89,-0.05 -0.89,-0.96 0,-0.43 0.3,-0.59 0.71,-0.59 1.59,0 3.32,0.16 4.97,0.16 1.7,0 3.5,-0.16 5.14,-0.16 0.25,0 0.89,0 0.89,1 0,0.55 -0.55,0.55 -0.89,0.55 -2.85,0.04 -3.39,1.04 -3.39,2.18 0,0.35 0.04,0.6 0.2,1.14 l 6.76,27.16 h 0.07 l 4.28,-30.89 c 0.09,-0.59 0.14,-1.14 0.75,-1.14 0.54,0 0.84,0.55 1.09,0.89 l 20.13,31.55 h 0.04 l -7.12,-28.55 c -0.5,-1.95 -0.6,-2.34 -4.53,-2.34 -0.85,0 -1.39,0 -1.39,-0.96 0,-0.59 0.59,-0.59 0.75,-0.59 1.39,0 4.78,0.16 6.17,0.16 2.05,0 4.19,-0.16 6.23,-0.16 0.3,0 0.94,0 0.94,1 0,0.55 -0.45,0.55 -1.39,0.55 -1.84,0 -3.23,0 -3.23,0.89 0,0.2 0,0.29 0.25,1.2 z"
           inkscape:connector-curvature="0"
           style="fill:#ff00f9;fill-opacity:1;stroke:none;stroke-width:3.33333325;stroke-miterlimit:4;stroke-dasharray:none;stroke-opacity:1" /></g>    </g>
    <path
       style="opacity:1;vector-effect:none;fill:none;fill-opacity:1;stroke:#ff00f8;stroke-width:0.865;stroke-linecap:butt;stroke-linejoin:miter;stroke-miterlimit:4;stroke-dasharray:none;stroke-dashoffset:0;stroke-opacity:1;marker-end:url(#marker4011)"
       d="m 243.41666,117.08332 c -7.05524,3.52762 -14.11079,7.0554 -21.16666,10.58334"
       id="path3929"
       inkscape:connector-curvature="0"
       inkscape:path-effect="#path-effect3931"
       inkscape:original-d="m 243.41666,117.08332 c -7.05529,3.52752 -14.11084,7.05529 -21.16666,10.58334" />
    <path
       style="opacity:1;vector-effect:none;fill:none;fill-opacity:1;stroke:#000000;stroke-width:0.71425027;stroke-linecap:butt;stroke-linejoin:miter;stroke-miterlimit:4;stroke-dasharray:none;stroke-dashoffset:0;stroke-opacity:1"
       d="M 381,95.916663 V 254.66666 H 550.33334 V 95.916663"
       id="path4157"
       inkscape:connector-curvature="0" />
    <path
       style="opacity:1;vector-effect:none;fill:none;fill-opacity:1;stroke:#000000;stroke-width:0.86500001;stroke-linecap:butt;stroke-linejoin:miter;stroke-miterlimit:4;stroke-dasharray:none;stroke-dashoffset:0;stroke-opacity:1;marker-end:url(#marker4187)"
       d="M 357.09134,102.84966 V 240.433"
       id="path4159"
       inkscape:connector-curvature="0" />
    <path
       style="fill:none;stroke:#000000;stroke-width:0.765;stroke-linecap:butt;stroke-linejoin:miter;stroke-opacity:1;stroke-miterlimit:4;stroke-dasharray:none"
       d="m 412.74999,21.833325 c 17.78503,-19.3983686 39.58784,-22.22976034 47.01973,12.442255 10.84463,50.593485 40.63091,-21.578027 67.12909,17.039886 14.62419,21.313002 5.75112,-19.502274 34.31453,-26.190389 7.04655,-1.649948 16.64407,-6.465732 20.86999,-3.291752"
       id="path4332"
       inkscape:connector-curvature="0"
       inkscape:path-effect="#path-effect4334"
       inkscape:original-d="m 412.74999,21.833325 c 10.79411,-3.350052 20.26349,-19.0794475 32.50595,-16.6309526 15.63698,3.1273927 9.36561,37.8229306 25.70239,47.6249996 14.69252,8.815522 20.41699,-18.267802 34.77381,-15.875 7.39532,1.232553 16.43505,8.68517 21.16667,14.363094 0.76219,0.914622 5.80313,8.315478 6.80358,8.315478 1.09886,0 2.07909,-6.615755 2.26785,-7.559524 1.63491,-8.174564 2.36982,-20.192724 9.82736,-22.678572 3.77042,-1.256803 27.76281,-7.352094 28.72621,-8.315476 4.12869,-4.128703 7.55952,5.695871 7.55952,0.755953"
       transform="translate(-31.74999,74.083338)" />
    <path
       style="fill:none;stroke:#000000;stroke-width:0.765;stroke-linecap:butt;stroke-linejoin:miter;stroke-opacity:1;stroke-miterlimit:4;stroke-dasharray:none"
       d="m 412.74999,21.833325 c -1.21094,41.937677 40.85134,32.610228 65.76785,79.374995 21.30794,39.99199 49.04161,2.95596 80.93484,-22.837038 15.41891,-12.46973 32.40742,-57.887804 22.63065,-56.537957"
       id="path4340"
       inkscape:connector-curvature="0"
       inkscape:path-effect="#path-effect4342"
       inkscape:original-d="m 412.74999,21.833325 c 1.52657,17.792474 5.86008,72.713528 26.45834,77.863095 10.35156,2.58789 32.64815,-1.818783 39.30951,1.5119 7.7542,3.8771 13.00187,10.53225 18.14288,17.38691 1.19139,1.58855 1.10985,4.33469 3.02379,5.29167 1.69902,0.8495 5.27936,-0.45111 6.80358,-0.75596 5.80403,-1.1608 11.16007,-3.92395 16.63096,-5.29166 5.14744,-1.28687 11.94065,0.83324 16.63094,-1.51191 4.19939,-2.09969 14.65152,-27.323575 16.63094,-33.261905 0.95766,-2.872951 4.96581,-6.621062 6.80358,-9.071427 4.70114,-6.268172 15.70887,-23.692032 18.14287,-30.994048 1.82404,-5.47217 8.84368,-16.102756 4.5357,-20.410713 -2.76532,-2.765329 -3.77975,4.551043 -3.77975,4.535713 0,-1.763888 0,-3.527776 0,-5.291665"
       transform="translate(-31.74999,74.083338)" />
    <path
       style="fill:none;stroke:#000000;stroke-width:0.765;stroke-linecap:butt;stroke-linejoin:miter;stroke-opacity:1;stroke-miterlimit:4;stroke-dasharray:none"
       d="m 412.74999,21.833325 c 3.02279,41.306927 20.22871,81.388335 58.47758,104.041805 49.88223,29.5435 67.95874,-37.537213 81.37361,-70.779901 5.34229,-13.238454 24.76764,-38.246581 29.48215,-33.261904"
       id="path4344"
       inkscape:connector-curvature="0"
       inkscape:path-effect="#path-effect4346"
       inkscape:original-d="m 412.74999,21.833325 c -2.75862,14.936826 6.36781,28.495036 9.8274,42.333332 1.64549,6.581989 2.49245,13.525026 4.5357,19.654763 4.14162,12.424899 26.91569,29.78704 37.79763,37.04167 8.75199,5.83466 15.64005,16.70926 27.21427,12.85119 8.92633,-2.97545 27.66179,-11.92583 30.99406,-21.92262 2.08283,-6.24854 2.63232,-16.603939 5.29167,-21.922622 2.65507,-5.310153 7.07615,-10.372545 9.82736,-15.875 1.83219,-3.664365 6.77432,-6.38171 9.07143,-9.827381 1.57448,-2.3617 3.45498,-7.234727 5.29167,-9.071428 3.24146,-3.241452 4.84309,-8.930195 6.80357,-12.85119 3.019,-6.038009 8.6364,-9.713262 11.3393,-15.119049 1.24902,-2.498066 6.23258,-4.535713 9.07143,-4.535713 2.0779,0 8.12551,-1.511905 6.0476,-1.511905 -1.28487,0 -2.51983,0.503968 -3.77975,0.755953"
       transform="translate(-31.74999,74.083338)" />
    <path
       style="fill:none;stroke:#000000;stroke-width:0.765;stroke-linecap:butt;stroke-linejoin:miter;stroke-opacity:1;stroke-miterlimit:4;stroke-dasharray:none"
       d="m 412.74999,21.833325 c 19.1259,22.333141 44.76221,49.24182 68.86472,47.67334 18.30835,-1.191423 39.59868,12.657435 52.59055,-6.598845 12.14721,-18.004342 34.28177,-23.643061 47.87807,-41.074495"
       id="path4348"
       inkscape:connector-curvature="0"
       inkscape:path-effect="#path-effect4350"
       inkscape:original-d="m 412.74999,21.833325 c 11.25284,9.228335 20.71032,19.426588 33.26191,25.70238 3.45133,1.725671 5.6201,5.833854 9.07143,7.559524 2.73161,1.365809 5.39472,2.370926 7.55951,4.535715 3.49168,3.491667 9.91598,-0.711663 12.85121,0.755952 4.29969,2.149853 4.75954,9.561327 8.31546,11.339285 0.66569,0.33284 3.19196,-2.267858 4.53573,-2.267858 2.26663,0 6.89594,2.175489 9.07142,0 1.03897,-1.038955 0.79854,-3.779761 2.26785,-3.779761 0.31507,0 -0.74067,4.535715 0.75597,4.535715 1.23761,0 2.72941,-2.729433 3.02379,-3.023811 0.40907,-0.409054 7.09641,3.178183 9.82739,2.267857 2.87261,-0.957537 8.93165,-5.739532 11.33927,-4.535712 0.66223,0.331102 4.65447,2.149099 5.29167,1.511903 2.3191,-2.319091 6.3295,-4.81757 8.31548,-6.80357 1.97935,-1.97935 2.08021,-6.331773 4.53573,-7.559524 2.178,-1.089006 3.84029,-3.432058 6.04761,-4.535715 15.85777,-7.92889 23.4597,-15.900164 33.26191,-25.70238"
       transform="translate(-31.74999,74.083338)" />
    <g
       id="g4392"
       transform="matrix(2.4259849,0,0,2.4259849,123.78565,-70.455162)">
      <g
         word-spacing="normal"
         letter-spacing="normal"
         font-size-adjust="none"
         font-stretch="normal"
         font-weight="normal"
         font-variant="normal"
         font-style="normal"
         stroke-miterlimit="10.433"
         xml:space="preserve"
         transform="matrix(0.3,0,0,-0.3,-52.5,222.75)"
         id="g4390"
         style="font-style:normal;font-variant:normal;font-weight:normal;font-stretch:normal;letter-spacing:normal;word-spacing:normal;text-anchor:start;fill:none;fill-opacity:1;fill-rule:evenodd;stroke:#000000;stroke-linecap:butt;stroke-linejoin:miter;stroke-miterlimit:10.43299961;stroke-dasharray:none;stroke-dashoffset:0;stroke-opacity:1"><path
           id="path4386"
           d="m 480.23,435.84 -0.07,-0.06 -0.07,-0.07 -0.08,-0.07 -0.08,-0.07 -0.08,-0.08 -0.09,-0.08 -0.09,-0.09 -0.1,-0.08 -0.09,-0.09 -0.1,-0.1 -0.19,-0.19 -0.2,-0.19 -0.19,-0.21 -0.09,-0.1 -0.09,-0.1 -0.09,-0.1 -0.08,-0.11 -0.08,-0.1 -0.08,-0.1 -0.07,-0.1 -0.06,-0.1 -0.06,-0.1 -0.06,-0.1 -0.04,-0.1 -0.04,-0.09 -0.03,-0.09 -0.02,-0.1 -0.02,-0.08 v -0.09 c 0,-0.5 0.5,-1 1,-1 0.45,0 0.7,0.36 0.95,0.66 0.59,0.75 1.73,2.14 3.94,3.23 0.34,0.21 0.84,0.46 0.84,1.05 0,0.5 -0.34,0.75 -0.7,1 -1.1,0.75 -1.64,1.64 -2.05,2.83 -0.09,0.45 -0.3,1.11 -0.98,1.11 -0.71,0 -1,-0.66 -1,-1.05 0,-0.25 0.39,-1.84 1.18,-2.89 h -16.78 c -0.84,0 -1.75,0 -1.75,-1 0,-1 0.91,-1 1.75,-1 z"
           inkscape:connector-curvature="0"
           style="fill:#000000;stroke-width:0" /><path
           id="path4388"
           d="m 478.98,424.98 0.01,0.06 0.01,0.05 0.01,0.05 0.02,0.06 0.02,0.1 0.01,0.05 0.01,0.06 0.01,0.05 0.01,0.06 0.01,0.05 0.01,0.06 0.01,0.06 v 0.06 0.03 0.03 0.03 0.03 c 0,0.86 -0.59,1.36 -1.43,1.36 -0.5,0 -1.85,-0.36 -2.05,-2.16 -0.89,1.85 -2.64,3.14 -4.62,3.14 l 0.04,-1.09 c 3.28,0 3.99,-4.03 3.99,-4.28 0,-0.25 -0.1,-0.55 -0.16,-0.75 l -2.39,-9.52 c -0.3,-1.29 -1.44,-2.53 -2.53,-3.48 -1.05,-0.89 -2.59,-1.8 -4.05,-1.8 -2.48,0 -3.23,2.6 -3.23,4.58 0,2.41 1.45,8.28 2.79,10.81 1.35,2.46 3.49,4.44 5.58,4.44 l -0.04,1.09 c -5.69,0 -11.86,-6.96 -11.86,-14.14 0,-4.93 3.03,-7.87 6.62,-7.87 2.94,0 5.28,2.34 5.78,2.89 l 0.05,-0.05 c -1.05,-4.43 -1.64,-6.48 -1.64,-6.58 -0.2,-0.45 -1.89,-5.39 -7.17,-5.39 -0.96,0 -2.6,0.07 -4,0.5 1.5,0.46 2.04,1.75 2.04,2.6 0,0.79 -0.54,1.75 -1.89,1.75 -1.09,0 -2.68,-0.91 -2.68,-2.89 0,-2.05 1.84,-3.05 6.62,-3.05 6.22,0 9.81,3.89 10.56,6.88 z"
           inkscape:connector-curvature="0"
           style="fill:#000000;stroke-width:0" /></g>    </g>
  </g>
</svg>
